{
  "accessors": [
    {
      "bufferView": 2,
      "componentType": 5126,
      "count": 12658,
      "max": [
        6.264928817749023,
        27.940505981445313,
        6.299495220184326
      ],
      "min": [
        -13.4854154586792,
        12.035812377929688,
        -9.341089248657227
      ],
      "type": "VEC3"
    },
    {
      "bufferView": 2,
      "byteOffset": 151896,
      "componentType": 5126,
      "count": 12658,
      "max": [
        0.9998197555541992,
        0.999928891658783,
        0.9997645020484924
      ],
      "min": [
        -0.9997316598892212,
        -0.9999448657035828,
        -0.9997027516365051
      ],
      "type": "VEC3"
    },
    {
      "bufferView": 3,
      "componentType": 5126,
      "count": 12658,
      "max": [
        0.9999997615814209,
        0.9999998211860657,
        0.9999997019767761,
        1.0
      ],
      "min": [
        -0.9947813749313354,
        -0.9999988079071045,
        -0.999999463558197,
        -1.0
      ],
      "type": "VEC4"
    },
    {
      "bufferView": 1,
      "componentType": 5126,
      "count": 12658,
      "max": [
        0.9449909925460815,
        0.9980080127716064
      ],
      "min": [
        0.0018860000418499112,
        0.0019920000340789557
      ],
      "type": "VEC2"
    },
    {
      "bufferView": 0,
      "componentType": 5125,
      "count": 27900,
      "type": "SCALAR"
    }
  ],
  "asset": {
    "extras": {
      "author": "Marcos Silva (https://sketchfab.com/marcosramone25)",
      "license": "CC-BY-4.0 (http://creativecommons.org/licenses/by/4.0/)",
      "source": "https://sketchfab.com/3d-models/baby-tomato-plant-scan-low-poly-3febc177a4d44144a83d8ed6a971cef4",
      "title": "Baby Tomato Plant Scan (Low Poly)"
    },
    "generator": "Sketchfab-15.24.0",
    "version": "2.0"
  },
  "bufferViews": [
    {
      "buffer": 0,
      "byteLength": 111600,
      "name": "floatBufferViews",
      "target": 34963
    },
    {
      "buffer": 0,
      "byteLength": 101264,
      "byteOffset": 111600,
      "byteStride": 8,
      "name": "floatBufferViews",
      "target": 34962
    },
    {
      "buffer": 0,
      "byteLength": 303792,
      "byteOffset": 212864,
      "byteStride": 12,
      "name": "floatBufferViews",
      "target": 34962
    },
    {
      "buffer": 0,
      "byteLength": 202528,
      "byteOffset": 516656,
      "byteStride": 16,
      "name": "floatBufferViews",
      "target": 34962
    }
  ],
  "buffers": [
    {
      "byteLength": 719184,
      "uri": "scene.bin"
    }
  ],
  "images": [
    {
      "uri": "textures/lambert10SG_1001_baseColor.jpeg"
    },
    {
      "uri": "textures/lambert10SG_1001_metallicRoughness.png"
    },
    {
      "uri": "textures/lambert10SG_1001_normal.png"
    }
  ],
  "materials": [
    {
      "doubleSided": true,
      "name": "lambert10SG_1001",
      "normalTexture": {
        "index": 2
      },
      "pbrMetallicRoughness": {
        "baseColorTexture": {
          "index": 0
        },
        "metallicRoughnessTexture": {
          "index": 1
        }
      }
    }
  ],
  "meshes": [
    {
      "name": "defaultMaterial",
      "primitives": [
        {
          "attributes": {
            "NORMAL": 1,
            "POSITION": 0,
            "TANGENT": 2,
            "TEXCOORD_0": 3
          },
          "indices": 4,
          "material": 0,
          "mode": 4
        }
      ]
    }
  ],
  "nodes": [
    {
      "children": [
        1
      ],
      "matrix": [
        1.0,
        0.0,
        0.0,
        0.0,
        0.0,
        2.220446049250313e-16,
        -1.0,
        0.0,
        0.0,
        1.0,
        2.220446049250313e-16,
        0.0,
        0.0,
        0.0,
        0.0,
        1.0
      ],
      "name": "Sketchfab_model"
    },
    {
      "children": [
        2
      ],
      "matrix": [
        1.0,
        0.0,
        0.0,
        0.0,
        0.0,
        -4.371139006309477e-08,
        0.999999999999999,
        0.0,
        0.0,
        -0.999999999999999,
        -4.371139006309477e-08,
        0.0,
        0.0,
        0.0,
        0.0,
        1.0
      ],
      "name": "Collada visual scene group"
    },
    {
      "children": [
        3
      ],
      "name": "Group53734"
    },
    {
      "mesh": 0,
      "name": "defaultMaterial"
    }
  ],
  "samplers": [
    {
      "magFilter": 9729,
      "minFilter": 9987,
      "wrapS": 10497,
      "wrapT": 10497
    }
  ],
  "scene": 0,
  "scenes": [
    {
      "name": "Sketchfab_Scene",
      "nodes": [
        0
      ]
    }
  ],
  "textures": [
    {
      "sampler": 0,
      "source": 0
    },
    {
      "sampler": 0,
      "source": 1
    },
    {
      "sampler": 0,
      "source": 2
    }
  ]
}
